<svg xmlns="http://www.w3.org/2000/svg" width="218" height="59" viewBox="0 0 218 59">
    <g id="Logo-Legifrance-Desktop" transform="translate(-190 -66)">
      <g id="Groupe_10" data-name="Groupe 10" transform="translate(190 66)">
        <g id="Groupe_8" data-name="Groupe 8">
          <path id="Tracé_26" data-name="Tracé 26" d="M269.352,33.023v4.67H251V7.2h5.137V33.07Z" transform="translate(-251 -4.725)" fill="#5e74b5"/>
          <path id="Tracé_27" data-name="Tracé 27" d="M318.155,25.155H300.643a7.055,7.055,0,0,0,7.191,5.79,9.061,9.061,0,0,0,6.538-2.708l2.662,2.849a12.64,12.64,0,0,1-9.573,3.923c-7.145,0-11.861-4.763-11.861-11.721,0-7,4.856-11.768,11.721-11.814C315.446,11.473,318.762,16.8,318.155,25.155Zm-4.343-3.642c-.187-3.736-2.662-6.024-6.444-6.024-3.642,0-6.211,2.288-6.818,6.024ZM304.1,8.344,308.722,1.9l5.137,2.195-5.323,4.249Z" transform="translate(-274.773 -1.9)" fill="#5e74b5"/>
          <path id="Tracé_28" data-name="Tracé 28" d="M373.568,43.506c0,6.678-4.763,10.834-12.048,10.834A16.811,16.811,0,0,1,351.9,51.3l2.148-3.6a11.6,11.6,0,0,0,7.285,2.522c4.39,0,7.285-2.568,7.285-6.584V40.7a8.538,8.538,0,0,1-7.658,3.923c-6.257,0-10.46-4.53-10.46-11.207,0-6.538,4.156-10.974,10.273-11.02a8.655,8.655,0,0,1,7.845,3.923V22.586h4.95Zm-4.95-9.946c0-4.2-2.755-7.1-6.678-7.1-3.969,0-6.724,2.942-6.771,7.1.047,4.2,2.755,7.145,6.771,7.145C365.863,40.7,368.618,37.762,368.618,33.559Z" transform="translate(-304.204 -12.711)" fill="#5e74b5"/>
          <path id="Tracé_29" data-name="Tracé 29" d="M419.684,5.135a2.942,2.942,0,1,1-5.884,0,2.943,2.943,0,1,1,5.884,0Zm-5.417,29.839V11.766h4.95V34.975Z" transform="translate(-338.029 -2.007)" fill="#5e74b5"/>
          <path id="Tracé_30" data-name="Tracé 30" d="M444.985,10.218v2.755h6.071v3.736h-6.071V35.294h-4.95V16.709H437V12.973h3.035V10.685c0-5.417,3.969-7.985,7.985-7.985a8.7,8.7,0,0,1,5.23,1.634l-1.915,3.829A5.639,5.639,0,0,0,448.16,7.09,2.882,2.882,0,0,0,444.985,10.218Z" transform="translate(-350.446 -2.326)" fill="#5e74b5"/>
          <path id="Tracé_31" data-name="Tracé 31" d="M478.4,27.21a8.466,8.466,0,0,1,8.032-4.81v4.81c-4.67-.28-7.612,2.475-8.032,6.444V45.8h-5V22.587h5Z" transform="translate(-369.902 -12.766)" fill="#5e74b5"/>
          <path id="Tracé_32" data-name="Tracé 32" d="M519.93,42.893c-1.634,2.055-4.3,3.035-7.658,3.035-5,0-8.172-3.082-8.172-7.191,0-4.249,3.175-6.911,8.779-6.958h7v-.7c0-2.942-1.868-4.67-5.557-4.67a12.49,12.49,0,0,0-6.865,2.335l-2.055-3.5A16.973,16.973,0,0,1,515.4,22.3c5.977,0,9.339,3.035,9.386,8.172l.047,15.223h-4.9Zm-.047-5.323V35.422h-6.257c-3.269,0-4.81.887-4.81,3.082,0,2.1,1.681,3.456,4.483,3.456C516.848,41.959,519.6,40.092,519.883,37.57Z" transform="translate(-386.331 -12.712)" fill="#5e74b5"/>
          <path id="Tracé_33" data-name="Tracé 33" d="M585.134,31.366V45.8h-5V32.767c0-3.5-2.1-5.6-5.557-5.6-3.829.047-6.211,2.708-6.584,6.3V45.8h-5V22.587h5v4.436c1.634-3.222,4.623-4.623,8.546-4.623C581.912,22.4,585.134,25.809,585.134,31.366Z" transform="translate(-417.828 -12.766)" fill="#5e74b5"/>
          <path id="Tracé_34" data-name="Tracé 34" d="M641.447,26.182,638.692,29.4a8.856,8.856,0,0,0-6.631-2.615c-4.016,0-6.864,2.989-6.864,7.425,0,4.39,2.9,7.425,6.864,7.425a8.724,8.724,0,0,0,6.865-2.8l2.8,2.8c-2.1,2.755-5.463,4.3-9.853,4.3-6.864,0-11.674-4.763-11.674-11.721,0-7,4.81-11.814,11.674-11.814C636.03,22.4,639.3,23.754,641.447,26.182Z" transform="translate(-448.5 -12.766)" fill="#5e74b5"/>
          <path id="Tracé_35" data-name="Tracé 35" d="M693.454,36.082H675.943a7.054,7.054,0,0,0,7.191,5.79,9.061,9.061,0,0,0,6.538-2.708l2.662,2.849a12.64,12.64,0,0,1-9.573,3.923c-7.145,0-11.861-4.763-11.861-11.721,0-7,4.857-11.768,11.721-11.814C690.746,22.4,694.062,27.723,693.454,36.082Zm-4.39-3.642c-.187-3.736-2.662-6.024-6.444-6.024-3.642,0-6.211,2.288-6.818,6.024Z" transform="translate(-475.525 -12.766)" fill="#5e74b5"/>
        </g>
        <g id="Groupe_9" data-name="Groupe 9" transform="translate(0 48.166)">
          <path id="Tracé_36" data-name="Tracé 36" d="M251,114.192v-.7l.887-.14v-6.211L251,107v-.7h2.849v.7l-.887.14v6.211h2.755l.093-.887h.887v1.728Z" transform="translate(-251 -105.6)" fill="#494b54"/>
          <path id="Tracé_37" data-name="Tracé 37" d="M268.262,116.571a2.675,2.675,0,0,1-1.961-.794,3.172,3.172,0,0,1-.7-2.1v-.233a2.975,2.975,0,0,1,.747-2.1,2.3,2.3,0,0,1,1.775-.841,2.158,2.158,0,0,1,1.774.7,2.774,2.774,0,0,1,.607,1.915v.654h-3.782v.047a2.269,2.269,0,0,0,.42,1.4,1.358,1.358,0,0,0,1.167.56,2.624,2.624,0,0,0,.934-.14,1.759,1.759,0,0,0,.7-.42l.42.7a2.357,2.357,0,0,1-.841.514A9.44,9.44,0,0,1,268.262,116.571Zm-.14-5.277a1.148,1.148,0,0,0-.934.467,2.211,2.211,0,0,0-.467,1.121v.047h2.708v-.14a1.723,1.723,0,0,0-.327-1.074A1.206,1.206,0,0,0,268.122,111.294Z" transform="translate(-258.782 -107.838)" fill="#494b54"/>
          <path id="Tracé_38" data-name="Tracé 38" d="M289.743,112.415h-.794l-.187-.7a.969.969,0,0,0-.467-.28,1.484,1.484,0,0,0-.654-.093,1.387,1.387,0,0,0-.841.233.822.822,0,0,0-.28.607.773.773,0,0,0,.233.56,3.029,3.029,0,0,0,.981.374,3.59,3.59,0,0,1,1.634.654,1.309,1.309,0,0,1,.56,1.074,1.55,1.55,0,0,1-.654,1.261,2.607,2.607,0,0,1-1.634.467,4.818,4.818,0,0,1-1.214-.14,2.206,2.206,0,0,1-.934-.467v-1.354h.794l.187.794a1.313,1.313,0,0,0,.514.233,3.153,3.153,0,0,0,.654.093,1.661,1.661,0,0,0,.887-.233.68.68,0,0,0,.327-.607.666.666,0,0,0-.28-.56,2.489,2.489,0,0,0-1.027-.374,3.609,3.609,0,0,1-1.588-.654,1.25,1.25,0,0,1-.56-1.074,1.481,1.481,0,0,1,.607-1.214,2.489,2.489,0,0,1,1.588-.514,3.317,3.317,0,0,1,1.214.187,2.286,2.286,0,0,1,.887.467Z" transform="translate(-269.336 -107.838)" fill="#494b54"/>
          <path id="Tracé_39" data-name="Tracé 39" d="M300.362,116.571a2.675,2.675,0,0,1-1.961-.794,3.171,3.171,0,0,1-.7-2.1v-.233a2.975,2.975,0,0,1,.747-2.1,2.3,2.3,0,0,1,1.775-.841,2.158,2.158,0,0,1,1.775.7,2.774,2.774,0,0,1,.607,1.915v.654h-3.829v.047a2.269,2.269,0,0,0,.42,1.4,1.358,1.358,0,0,0,1.167.56,2.623,2.623,0,0,0,.934-.14,1.758,1.758,0,0,0,.7-.42l.42.7a2.358,2.358,0,0,1-.84.514A7.931,7.931,0,0,1,300.362,116.571Zm-.187-5.277a1.148,1.148,0,0,0-.934.467,2.211,2.211,0,0,0-.467,1.121v.047h2.708v-.14a1.723,1.723,0,0,0-.327-1.074A1.091,1.091,0,0,0,300.175,111.294Z" transform="translate(-275.893 -107.838)" fill="#494b54"/>
          <path id="Tracé_40" data-name="Tracé 40" d="M310.847,111.194v-.7h1.821l.093.841a2.984,2.984,0,0,1,.607-.7,1.275,1.275,0,0,1,.841-.233h.28c.093,0,.14.047.187.047l-.14.981-.607-.047a1.125,1.125,0,0,0-.7.187,1.868,1.868,0,0,0-.467.56v3.362l.887.14v.7H310.8v-.7l.887-.14v-4.2Z" transform="translate(-282.875 -107.785)" fill="#494b54"/>
          <path id="Tracé_41" data-name="Tracé 41" d="M323.095,111.3l-.7.093,1.214,3.315.093.42h.047l.093-.42,1.167-3.315-.7-.093v-.7H326.6v.7l-.467.093-1.961,5.09h-.794l-2.008-5.09-.467-.093v-.7h2.288v.7Z" transform="translate(-288.259 -107.892)" fill="#494b54"/>
          <path id="Tracé_42" data-name="Tracé 42" d="M335,112.852l.887-.14v-4.2l-.887-.14v-.7h1.961v5.043l.887.14v.7H335Zm1.961-6.678h-1.074V105.1h1.074Z" transform="translate(-295.775 -104.96)" fill="#494b54"/>
          <path id="Tracé_43" data-name="Tracé 43" d="M345.968,115.73a1.346,1.346,0,0,0,.934-.327.976.976,0,0,0,.42-.794h.981v.047a1.716,1.716,0,0,1-.654,1.354,2.615,2.615,0,0,1-1.634.607,2.412,2.412,0,0,1-1.961-.841,3.144,3.144,0,0,1-.654-2.1v-.233a3.172,3.172,0,0,1,.7-2.1,2.412,2.412,0,0,1,1.961-.841,3.565,3.565,0,0,1,1.261.233,2.256,2.256,0,0,1,.934.654l.047,1.308h-.841l-.233-.934a.969.969,0,0,0-.467-.28,1.484,1.484,0,0,0-.654-.093,1.271,1.271,0,0,0-1.214.607,2.95,2.95,0,0,0-.374,1.494v.233a2.828,2.828,0,0,0,.374,1.494A1.094,1.094,0,0,0,345.968,115.73Z" transform="translate(-300.394 -107.838)" fill="#494b54"/>
          <path id="Tracé_44" data-name="Tracé 44" d="M359.162,116.571a2.675,2.675,0,0,1-1.961-.794,3.172,3.172,0,0,1-.7-2.1v-.233a2.975,2.975,0,0,1,.747-2.1,2.3,2.3,0,0,1,1.775-.841,2.157,2.157,0,0,1,1.774.7,2.774,2.774,0,0,1,.607,1.915v.654h-3.782v.047a2.269,2.269,0,0,0,.42,1.4,1.358,1.358,0,0,0,1.167.56,2.623,2.623,0,0,0,.934-.14,1.758,1.758,0,0,0,.7-.42l.42.7a2.358,2.358,0,0,1-.841.514A7.923,7.923,0,0,1,359.162,116.571Zm-.14-5.277a1.148,1.148,0,0,0-.934.467,2.211,2.211,0,0,0-.467,1.121v.047h2.708v-.14a1.723,1.723,0,0,0-.327-1.074A1.206,1.206,0,0,0,359.022,111.294Z" transform="translate(-307.397 -107.838)" fill="#494b54"/>
          <path id="Tracé_45" data-name="Tracé 45" d="M375.8,117.965l.887-.14v-6.444l-.887-.14v-.7h1.821l.093.7a1.745,1.745,0,0,1,.7-.607,2.171,2.171,0,0,1,.981-.233,1.826,1.826,0,0,1,1.681.887,3.792,3.792,0,0,1,.607,2.288v.093a3.166,3.166,0,0,1-.607,2.055,2.082,2.082,0,0,1-1.681.794,1.852,1.852,0,0,1-.934-.187,1.63,1.63,0,0,1-.7-.56v2.008l.887.14v.7H375.8Zm4.81-4.39a3.382,3.382,0,0,0-.374-1.634,1.331,1.331,0,0,0-1.167-.654,1.431,1.431,0,0,0-.794.187,1.485,1.485,0,0,0-.514.56v2.849a1.99,1.99,0,0,0,.514.56,1.431,1.431,0,0,0,.794.187,1.358,1.358,0,0,0,1.167-.56,2.309,2.309,0,0,0,.374-1.448Z" transform="translate(-317.715 -107.785)" fill="#494b54"/>
          <path id="Tracé_46" data-name="Tracé 46" d="M394.889,115.7a2.162,2.162,0,0,1-.7.747,1.768,1.768,0,0,1-1.027.233,1.842,1.842,0,0,1-1.494-.607,2.763,2.763,0,0,1-.514-1.915v-2.615l-.654-.14v-.7h1.728v3.456a2.26,2.26,0,0,0,.28,1.308,1.026,1.026,0,0,0,.841.374,1.839,1.839,0,0,0,.934-.233,1.552,1.552,0,0,0,.56-.654v-3.409l-.794-.14v-.7h1.868v5.043l.654.14v.7h-1.634Z" transform="translate(-325.574 -107.945)" fill="#494b54"/>
          <path id="Tracé_47" data-name="Tracé 47" d="M410.484,110.844a3.167,3.167,0,0,1-.607,2.055,2.082,2.082,0,0,1-1.681.794,2.17,2.17,0,0,1-.981-.233,1.873,1.873,0,0,1-.7-.654l-.093.747h-.934v-7.612l-.887-.14v-.7h1.961v3.269a1.746,1.746,0,0,1,.7-.607,2.091,2.091,0,0,1,.934-.187,1.876,1.876,0,0,1,1.681.887,3.793,3.793,0,0,1,.607,2.288Zm-1.074-.093a3.383,3.383,0,0,0-.374-1.634,1.207,1.207,0,0,0-1.121-.654,1.613,1.613,0,0,0-.841.233,1.553,1.553,0,0,0-.56.654v2.568a1.9,1.9,0,0,0,.56.654,1.613,1.613,0,0,0,.841.233,1.3,1.3,0,0,0,1.121-.514,2.6,2.6,0,0,0,.374-1.4Z" transform="translate(-333.111 -104.96)" fill="#494b54"/>
          <path id="Tracé_48" data-name="Tracé 48" d="M419.5,105.8v-.7h1.961v7.612l.887.14v.7H419.5v-.7l.887-.14v-6.771Z" transform="translate(-341.073 -104.96)" fill="#494b54"/>
          <path id="Tracé_49" data-name="Tracé 49" d="M427.7,112.852l.887-.14v-4.2l-.887-.14v-.7h1.961v5.043l.887.14v.7H427.7Zm1.961-6.678h-1.074V105.1h1.074Z" transform="translate(-345.456 -104.96)" fill="#494b54"/>
          <path id="Tracé_50" data-name="Tracé 50" d="M438.668,115.73a1.346,1.346,0,0,0,.934-.327.976.976,0,0,0,.42-.794H441v.047a1.716,1.716,0,0,1-.654,1.354,2.614,2.614,0,0,1-1.634.607,2.412,2.412,0,0,1-1.961-.841,3.144,3.144,0,0,1-.654-2.1v-.233a3.172,3.172,0,0,1,.7-2.1,2.412,2.412,0,0,1,1.961-.841,3.565,3.565,0,0,1,1.261.233,2.256,2.256,0,0,1,.934.654l.047,1.308h-.841l-.233-.934a.969.969,0,0,0-.467-.28,1.484,1.484,0,0,0-.654-.093,1.271,1.271,0,0,0-1.214.607,2.95,2.95,0,0,0-.374,1.494v.233a2.827,2.827,0,0,0,.374,1.494A1.094,1.094,0,0,0,438.668,115.73Z" transform="translate(-349.949 -107.838)" fill="#494b54"/>
          <path id="Tracé_51" data-name="Tracé 51" d="M459.469,112.8a1.745,1.745,0,0,1-.7.607,2.166,2.166,0,0,1-.981.187,2.082,2.082,0,0,1-1.681-.794,3.167,3.167,0,0,1-.607-2.055v-.093a3.889,3.889,0,0,1,.607-2.288,2.04,2.04,0,0,1,1.681-.887,2.091,2.091,0,0,1,.934.187,2.068,2.068,0,0,1,.7.56v-2.382l-.887-.14V105H460.5v7.612l.887.14v.7h-1.821Zm-2.9-2.008a2.382,2.382,0,0,0,.374,1.4,1.192,1.192,0,0,0,1.121.514,1.413,1.413,0,0,0,1.307-.841V109.2a3.213,3.213,0,0,0-.514-.607,1.447,1.447,0,0,0-.794-.233,1.207,1.207,0,0,0-1.121.654,3.383,3.383,0,0,0-.374,1.634Z" transform="translate(-360.321 -104.907)" fill="#494b54"/>
          <path id="Tracé_52" data-name="Tracé 52" d="M472.962,116.571a2.675,2.675,0,0,1-1.961-.794,3.171,3.171,0,0,1-.7-2.1v-.233a2.975,2.975,0,0,1,.747-2.1,2.3,2.3,0,0,1,1.775-.841,2.157,2.157,0,0,1,1.774.7,2.774,2.774,0,0,1,.607,1.915v.654h-3.782v.047a2.269,2.269,0,0,0,.42,1.4,1.358,1.358,0,0,0,1.167.56,2.624,2.624,0,0,0,.934-.14,1.759,1.759,0,0,0,.7-.42l.42.7a2.359,2.359,0,0,1-.841.514A9.441,9.441,0,0,1,472.962,116.571Zm-.187-5.277a1.148,1.148,0,0,0-.934.467,2.21,2.21,0,0,0-.467,1.121v.047h2.708v-.14a1.723,1.723,0,0,0-.327-1.074A1.091,1.091,0,0,0,472.775,111.294Z" transform="translate(-368.231 -107.838)" fill="#494b54"/>
          <path id="Tracé_53" data-name="Tracé 53" d="M489.5,105.8v-.7h1.961v7.612l.887.14v.7H489.5v-.7l.887-.14v-6.771Z" transform="translate(-378.492 -104.96)" fill="#494b54"/>
          <path id="Tracé_54" data-name="Tracé 54" d="M501.582,116.377c-.047-.14-.047-.28-.093-.42,0-.14-.047-.233-.047-.374a2.216,2.216,0,0,1-.794.654,1.962,1.962,0,0,1-.981.28,1.886,1.886,0,0,1-1.4-.467,1.764,1.764,0,0,1,.187-2.568,3.554,3.554,0,0,1,1.868-.467h1.121v-.7a.962.962,0,0,0-.327-.794,1.346,1.346,0,0,0-.887-.28,2.826,2.826,0,0,0-.7.093,1.114,1.114,0,0,0-.514.28l-.093.607h-.841V111.1a3.262,3.262,0,0,1,.981-.514,3.482,3.482,0,0,1,1.214-.187,2.627,2.627,0,0,1,1.634.514,1.746,1.746,0,0,1,.607,1.448v3.269l.42.047v.7Zm-1.728-.794a2.171,2.171,0,0,0,.981-.233,1.509,1.509,0,0,0,.607-.607v-.981h-1.121a1.433,1.433,0,0,0-1.027.327.975.975,0,0,0-.374.747.888.888,0,0,0,.234.607A1.312,1.312,0,0,0,499.855,115.583Z" transform="translate(-382.932 -107.785)" fill="#494b54"/>
          <path id="Tracé_55" data-name="Tracé 55" d="M521.469,112.8a1.744,1.744,0,0,1-.7.607,2.166,2.166,0,0,1-.981.187,2.082,2.082,0,0,1-1.681-.794,3.166,3.166,0,0,1-.607-2.055v-.093a3.888,3.888,0,0,1,.607-2.288,2.04,2.04,0,0,1,1.681-.887,2.091,2.091,0,0,1,.934.187,2.067,2.067,0,0,1,.7.56v-2.382l-.887-.14V105H522.5v7.612l.887.14v.7h-1.821Zm-2.9-2.008a2.382,2.382,0,0,0,.374,1.4,1.192,1.192,0,0,0,1.121.514,1.413,1.413,0,0,0,1.307-.841V109.2a3.208,3.208,0,0,0-.514-.607,1.447,1.447,0,0,0-.794-.233,1.207,1.207,0,0,0-1.121.654,3.383,3.383,0,0,0-.374,1.634Z" transform="translate(-393.465 -104.907)" fill="#494b54"/>
          <path id="Tracé_56" data-name="Tracé 56" d="M532.2,112.852l.887-.14v-4.2l-.887-.14v-.7h1.961v5.043l.887.14v.7H532.2v-.7Zm1.961-6.678h-1.074V105.1h1.074Z" transform="translate(-401.317 -104.96)" fill="#494b54"/>
          <path id="Tracé_57" data-name="Tracé 57" d="M540.2,108.3v-.794h.934v-.747a1.841,1.841,0,0,1,.514-1.448A1.868,1.868,0,0,1,543,104.8a1.028,1.028,0,0,1,.374.047c.14.047.28.047.42.093l-.14.794a2.033,2.033,0,0,0-.234-.047h-.28a.82.82,0,0,0-.7.28,1.336,1.336,0,0,0-.233.794v.747h1.214v.794h-1.214v4.249l.887.14v.7h-2.849v-.7l.887-.14V108.3Z" transform="translate(-405.595 -104.8)" fill="#494b54"/>
          <path id="Tracé_58" data-name="Tracé 58" d="M549.1,108.3v-.794h.934v-.747a1.84,1.84,0,0,1,.514-1.448,1.868,1.868,0,0,1,1.354-.514,1.029,1.029,0,0,1,.374.047,1.363,1.363,0,0,1,.42.093l-.14.794a2.02,2.02,0,0,0-.234-.047h-.28a.82.82,0,0,0-.7.28,1.336,1.336,0,0,0-.233.794v.747h1.214v.794h-1.214v4.249l.887.14v.7h-2.849v-.7l.887-.14V108.3Z" transform="translate(-410.353 -104.8)" fill="#494b54"/>
          <path id="Tracé_59" data-name="Tracé 59" d="M562.189,115.7a2.162,2.162,0,0,1-.7.747,1.768,1.768,0,0,1-1.027.233,1.842,1.842,0,0,1-1.494-.607,2.763,2.763,0,0,1-.514-1.915v-2.615l-.654-.14v-.7h1.728v3.456a2.261,2.261,0,0,0,.28,1.308,1.026,1.026,0,0,0,.841.374,1.839,1.839,0,0,0,.934-.233,1.552,1.552,0,0,0,.56-.654v-3.409l-.794-.14v-.7h1.868v5.043l.654.14v.7h-1.634Z" transform="translate(-415.009 -107.945)" fill="#494b54"/>
          <path id="Tracé_60" data-name="Tracé 60" d="M577.743,112.415h-.794l-.187-.7a.968.968,0,0,0-.467-.28,1.483,1.483,0,0,0-.654-.093,1.387,1.387,0,0,0-.841.233.822.822,0,0,0-.28.607.774.774,0,0,0,.233.56,3.028,3.028,0,0,0,.981.374,3.591,3.591,0,0,1,1.634.654,1.446,1.446,0,0,1,.56,1.074,1.55,1.55,0,0,1-.654,1.261,2.607,2.607,0,0,1-1.634.467,4.819,4.819,0,0,1-1.214-.14,2.206,2.206,0,0,1-.934-.467v-1.354h.794l.187.794a1.314,1.314,0,0,0,.514.233,3.151,3.151,0,0,0,.654.093,1.661,1.661,0,0,0,.887-.233.681.681,0,0,0,.327-.607.666.666,0,0,0-.28-.56,2.489,2.489,0,0,0-1.027-.374,3.611,3.611,0,0,1-1.588-.654,1.25,1.25,0,0,1-.56-1.074,1.481,1.481,0,0,1,.607-1.214,2.489,2.489,0,0,1,1.588-.514,3.318,3.318,0,0,1,1.214.187,2.286,2.286,0,0,1,.887.467Z" transform="translate(-423.345 -107.838)" fill="#494b54"/>
          <path id="Tracé_61" data-name="Tracé 61" d="M585.6,112.852l.887-.14v-4.2l-.887-.14v-.7h1.961v5.043l.887.14v.7H585.6v-.7Zm1.961-6.678h-1.074V105.1h1.074Z" transform="translate(-429.862 -104.96)" fill="#494b54"/>
          <path id="Tracé_62" data-name="Tracé 62" d="M593.9,113.389a3.214,3.214,0,0,1,.7-2.148,2.6,2.6,0,0,1,3.829,0,3.214,3.214,0,0,1,.7,2.148v.14a3.214,3.214,0,0,1-.7,2.148,2.6,2.6,0,0,1-3.829,0,3.214,3.214,0,0,1-.7-2.148Zm1.074.14a3.135,3.135,0,0,0,.374,1.541,1.426,1.426,0,0,0,2.335,0,2.7,2.7,0,0,0,.374-1.541v-.14a3.134,3.134,0,0,0-.374-1.541,1.426,1.426,0,0,0-2.335,0,2.7,2.7,0,0,0-.374,1.541Z" transform="translate(-434.305 -107.785)" fill="#494b54"/>
          <path id="Tracé_63" data-name="Tracé 63" d="M607.3,115.677l.887-.14v-4.2l-.887-.14v-.7h1.821l.093.887a1.549,1.549,0,0,1,.747-.7,1.776,1.776,0,0,1,1.027-.28,1.8,1.8,0,0,1,1.448.56,2.544,2.544,0,0,1,.514,1.728v2.849l.887.14v.7h-2.848v-.7l.887-.14v-2.849a1.535,1.535,0,0,0-.327-1.121,1.142,1.142,0,0,0-.934-.327,1.447,1.447,0,0,0-.794.233,1.749,1.749,0,0,0-.56.607v3.456l.887.14v.7H607.3v-.7Z" transform="translate(-441.472 -107.785)" fill="#494b54"/>
          <path id="Tracé_64" data-name="Tracé 64" d="M633.569,112.8a1.746,1.746,0,0,1-.7.607,2.165,2.165,0,0,1-.981.187,2.082,2.082,0,0,1-1.681-.794,3.167,3.167,0,0,1-.607-2.055v-.093a3.889,3.889,0,0,1,.607-2.288,2.041,2.041,0,0,1,1.681-.887,2.092,2.092,0,0,1,.934.187,2.068,2.068,0,0,1,.7.56v-2.382l-.887-.14V105H634.6v7.612l.887.14v.7h-1.821Zm-2.849-2.008a2.383,2.383,0,0,0,.374,1.4,1.192,1.192,0,0,0,1.121.514,1.413,1.413,0,0,0,1.307-.841V109.2a3.222,3.222,0,0,0-.514-.607,1.447,1.447,0,0,0-.794-.233,1.207,1.207,0,0,0-1.121.654,3.385,3.385,0,0,0-.374,1.634Z" transform="translate(-453.51 -104.907)" fill="#494b54"/>
          <path id="Tracé_65" data-name="Tracé 65" d="M648.389,115.7a2.161,2.161,0,0,1-.7.747,1.768,1.768,0,0,1-1.027.233,1.842,1.842,0,0,1-1.494-.607,2.763,2.763,0,0,1-.514-1.915v-2.615L644,111.4v-.7h1.728v3.456a2.261,2.261,0,0,0,.28,1.308,1.026,1.026,0,0,0,.841.374,1.839,1.839,0,0,0,.934-.233,1.552,1.552,0,0,0,.56-.654v-3.409l-.794-.14v-.7h1.868v5.043l.654.14v.7h-1.634Z" transform="translate(-461.186 -107.945)" fill="#494b54"/>
          <path id="Tracé_66" data-name="Tracé 66" d="M669.469,112.8a1.746,1.746,0,0,1-.7.607,2.166,2.166,0,0,1-.981.187,2.082,2.082,0,0,1-1.681-.794,3.167,3.167,0,0,1-.607-2.055v-.093a3.889,3.889,0,0,1,.607-2.288,2.04,2.04,0,0,1,1.681-.887,2.091,2.091,0,0,1,.934.187,2.068,2.068,0,0,1,.7.56v-2.382l-.887-.14V105H670.5v7.612l.887.14v.7h-1.821Zm-2.849-2.008a2.382,2.382,0,0,0,.374,1.4,1.192,1.192,0,0,0,1.121.514,1.413,1.413,0,0,0,1.307-.841V109.2a3.22,3.22,0,0,0-.514-.607,1.448,1.448,0,0,0-.794-.233,1.207,1.207,0,0,0-1.121.654,3.383,3.383,0,0,0-.374,1.634Z" transform="translate(-472.646 -104.907)" fill="#494b54"/>
          <path id="Tracé_67" data-name="Tracé 67" d="M680.247,111.194v-.7h1.821l.094.841a2.983,2.983,0,0,1,.607-.7,1.274,1.274,0,0,1,.841-.233h.28c.094,0,.14.047.187.047l-.14.981-.607-.047a1.125,1.125,0,0,0-.7.187,1.865,1.865,0,0,0-.467.56v3.362l.887.14v.7H680.2v-.7l.887-.14v-4.2Z" transform="translate(-480.482 -107.785)" fill="#494b54"/>
          <path id="Tracé_68" data-name="Tracé 68" d="M690.3,113.389a3.213,3.213,0,0,1,.7-2.148,2.6,2.6,0,0,1,3.829,0,3.214,3.214,0,0,1,.7,2.148v.14a3.214,3.214,0,0,1-.7,2.148,2.6,2.6,0,0,1-3.829,0,3.214,3.214,0,0,1-.7-2.148Zm1.074.14a3.135,3.135,0,0,0,.374,1.541,1.426,1.426,0,0,0,2.335,0,2.7,2.7,0,0,0,.374-1.541v-.14a3.134,3.134,0,0,0-.374-1.541,1.426,1.426,0,0,0-2.335,0,2.7,2.7,0,0,0-.374,1.541Z" transform="translate(-485.865 -107.785)" fill="#494b54"/>
          <path id="Tracé_69" data-name="Tracé 69" d="M704.1,112.852l.887-.14v-4.2l-.887-.14v-.7h1.961v5.043l.887.14v.7H704.1v-.7Zm1.915-6.678h-1.027V105.1h1.074v1.074Z" transform="translate(-493.221 -104.96)" fill="#494b54"/>
          <path id="Tracé_70" data-name="Tracé 70" d="M714.008,107.6V109h1.121v.794h-1.121v3.549c0,.28.047.467.187.56a.713.713,0,0,0,.467.187.912.912,0,0,0,.327-.047,1.652,1.652,0,0,0,.28-.047l.14.747a.917.917,0,0,1-.467.14,2.466,2.466,0,0,1-.607.047,1.454,1.454,0,0,1-1.027-.374,1.8,1.8,0,0,1-.374-1.214v-3.549H712V109h.934v-1.4Z" transform="translate(-497.432 -106.292)" fill="#494b54"/>
        </g>
      </g>
    </g>
  </svg>
  