<?xml version="1.0" encoding="utf-8"?>
<!-- Generator: Adobe Illustrator 26.3.1, SVG Export Plug-In . SVG Version: 6.00 Build 0)  -->
<svg version="1.1" id="Calque_1" xmlns="http://www.w3.org/2000/svg" xmlns:xlink="http://www.w3.org/1999/xlink" x="0px" y="0px"
	 viewBox="0 0 863.2 300" style="enable-background:new 0 0 863.2 300;" xml:space="preserve">
<style type="text/css">
	.st0{fill:#1E1E1C;}
	.st1{fill:#41CE82;}
</style>
<g id="Calque_2_00000000945367623546858710000006465611022434869134_">
	<g id="Calque_1-2">
		<g id="Calque_2-2">
			<g id="Calque_1-2-2">
				<path class="st0" d="M753.6,109c8.3,0,14.1,4.9,15.5,13.1h-31.7C739.4,114,745.5,109,753.6,109 M785,127c0-9.7-3-17.3-8.8-22.9
					s-13.4-8.6-22.5-8.6c-9.6,0-17.4,3.1-23.4,9.2s-9,14-9,23.5c-0.2,8.5,2.9,16.8,8.7,23.1c5.8,6.3,14.2,9.5,25.2,9.5
					c9.8,0.2,19.4-2.9,27.3-8.6l-6.4-11.3c-6,3.9-12.9,6.1-20.1,6.3c-9.8,0-16-4.5-18.1-13.3h46.9C784.7,131.6,784.8,129.3,785,127
					 M682.9,161.1c17.8,0,28.6-10.3,28.6-27.8v-36h-16.2v36.1c0,7.9-4.7,13.1-12.4,13.1s-12.4-5.2-12.4-13.1V97.3h-16.2v36.1
					C654.3,150.8,665.1,161.1,682.9,161.1 M608.2,146.3c-4.7,0.2-9.3-1.7-12.5-5.2c-6.4-7.2-6.4-18.1,0-25.3
					c6.9-6.8,17.9-6.8,24.8,0l0,0c6.4,7.3,6.4,18.1,0,25.4C617.4,144.6,612.9,146.5,608.2,146.3 M625.1,105
					c-4.9-5.9-12.1-9.3-19.8-9.2c-8.4-0.2-16.5,3.3-22.1,9.5c-11.6,13.3-11.6,33,0,46.3c5.6,6.2,13.7,9.7,22.1,9.5
					c7.6,0.1,14.8-3.1,19.7-8.9v33h16.1V97.4H625L625.1,105z M564.9,97.3h-16.2v62.4h16.2L564.9,97.3z M564,87.4
					c3.7-4,3.7-10.1,0-14.1c-4-3.7-10.2-3.7-14.2,0c-3.9,3.9-3.9,10.3,0.1,14.2S560.1,91.3,564,87.4 M535.1,72.6H519v87h16.2v-87
					H535.1z M457.8,128.4c-0.1-4.6,1.6-9.1,4.8-12.5c3.1-3.5,7.6-5.4,12.3-5.3c4.7-0.1,9.1,1.8,12.3,5.2c3.3,3.4,5,8.1,4.8,12.8
					c0.1,4.7-1.6,9.3-4.8,12.8c-6.7,6.8-17.6,6.9-24.4,0.2c0,0-0.1-0.1-0.1-0.1l0,0l-0.1-0.1C459.5,137.8,457.8,133.2,457.8,128.4
					 M477.5,95.7c-7.3-0.1-14.3,3.2-19,8.8V72.6h-16.2v87h15.6v-7.8c4.7,6,11.9,9.4,19.5,9.2c8.4,0.2,16.4-3.2,22.2-9.2
					c5.9-6.3,9.1-14.7,8.9-23.3c0.2-8.6-3-17-8.9-23.3C494,98.9,485.9,95.4,477.5,95.7 M400.6,161.1c17.8,0,28.6-10.3,28.6-27.8v-36
					h-16.1v36.1c0,7.9-4.7,13.1-12.4,13.1s-12.4-5.2-12.4-13.1V97.3h-16.2v36.1C372,150.8,382.9,161.1,400.6,161.1 M329,146.3
					c-4.7,0.1-9.1-1.8-12.3-5.2c-6.4-7.3-6.4-18.1,0-25.4c6.9-6.8,18-6.8,24.9,0l0,0c6.4,7.3,6.4,18.1,0,25.4
					C338.4,144.6,333.8,146.5,329,146.3 M331.9,95.6c-7.7-0.1-14.9,3.3-19.8,9.2v-7.7h-16v88h16.2v-32.9c5,5.6,12.1,8.8,19.6,8.7
					c8.4,0.2,16.4-3.3,22-9.5c11.7-13.2,11.7-33.1,0.1-46.4C348.3,98.8,340.3,95.4,331.9,95.6 M225.5,109c8.3,0,14.1,4.9,15.5,13.1
					h-31.7C211.3,114,217.4,109,225.5,109 M256.7,127c0-9.7-3-17.3-8.8-22.9s-13.3-8.6-22.4-8.6c-9.6,0-17.4,3.1-23.4,9.2
					s-9,14-9,23.5c-0.2,8.5,2.9,16.8,8.7,23.1c5.8,6.3,14.2,9.5,25.2,9.5c9.8,0.1,19.3-2.9,27.3-8.6l-6.4-11.3
					c-6,3.9-12.9,6.1-20.1,6.3c-9.8,0-15.8-4.5-18.2-13.3h46.8C256.5,131.7,256.7,129.3,256.7,127 M183.4,97.3h-16.2v62.4h16.2
					L183.4,97.3z M182.5,87.4c3.7-4,3.7-10.1,0-14.1c-4-3.7-10.2-3.7-14.2,0c-3.9,3.9-3.9,10.3,0.1,14.2
					C172.3,91.3,178.6,91.3,182.5,87.4L182.5,87.4 M117.9,133.6L95.6,75H76.1l35.2,84.6h13.4L159.3,75H140L117.9,133.6z"/>
			</g>
		</g>
	</g>
</g>
<g id="Calque_2-2-2">
	<g id="Calque_1-2-2-2">
		<g id="Calque_2-2-3">
			<g id="Calque_1-2-2-3">
				<polygon class="st1" points="28.9,208 28.9,161 0,161 0,214.1 0,234.3 0,237 73.4,237 73.4,208 				"/>
			</g>
		</g>
	</g>
</g>
<g id="Calque_2-3">
	<g id="Calque_1-2-3">
		<g id="Calque_2-2-4">
			<g id="Calque_1-2-2-4">
				<polygon class="st1" points="789.8,23.5 789.8,52.4 834.2,52.4 834.2,99.5 863.2,99.5 863.2,23.5 				"/>
			</g>
		</g>
	</g>
</g>
<g id="Calque_2-4">
	<g id="Calque_1-2-4">
		<g id="Calque_2-2-5">
			<g id="Calque_1-2-2-5">
				<path class="st0" d="M763.7,228.7c2.5,0.1,4.9-0.6,7-1.8c2-1.1,3.7-2.8,4.8-4.8l-3.8-2.2c-1.6,2.9-4.7,4.6-8,4.6
					c-2.4,0.1-4.7-0.9-6.4-2.6c-3.4-3.8-3.4-9.5,0-13.3c1.7-1.8,4.1-2.7,6.6-2.6c3.3,0,6.3,1.8,7.9,4.7l3.8-2.2
					c-2.3-4.3-6.9-6.9-11.8-6.7c-3.7-0.1-7.3,1.2-10,3.8c-5.4,5.2-5.5,13.7-0.4,19c0,0,0,0,0.1,0.1
					C756.2,227.4,759.9,228.9,763.7,228.7 M744.7,202.4h-4.6v25.7h4.6V202.4z M742.5,198.7c1.8-0.1,3.2-1.6,3.2-3.4
					c-0.1-1.8-1.6-3.2-3.4-3.2c-1.6,0.1-3,1.3-3.2,2.9v0.2c0,1.8,1.4,3.3,3.2,3.3c0,0,0,0,0,0h0.2 M733.2,191.5h-4.6V228h4.6V191.5z
					 M709.5,224.4c-2.4,0.1-4.7-0.9-6.4-2.6c-3.2-3.8-3.2-9.3,0-13.1c3.4-3.5,9-3.5,12.5-0.1l0,0l0.1,0.1c1.7,1.7,2.5,4.1,2.4,6.5
					c0.1,2.4-0.8,4.8-2.4,6.6C714.1,223.5,711.9,224.5,709.5,224.4 M710.2,201.5c-3.6-0.1-7,1.6-9.1,4.5v-14.5h-4.6V228h4.6v-3.7
					c2.1,2.9,5.5,4.5,9.1,4.4c3.5,0.1,6.9-1.3,9.2-4c2.4-2.7,3.7-6.1,3.7-9.7c0.1-3.6-1.2-7-3.7-9.6
					C717,202.9,713.7,201.5,710.2,201.5 M678.5,228.7c6.9,0,11.1-4.2,11.1-11.1v-15.4H685v15.3c0,4.3-2.4,6.9-6.5,6.9
					s-6.5-2.6-6.5-6.9v-15.3h-4.7v15.5C667.3,224.4,671.7,228.7,678.5,228.7 M657.5,215.1c0.1,2.5-0.8,4.8-2.4,6.7
					c-3.5,3.5-9.2,3.6-12.7,0.1l0,0l-0.1-0.1c-3.2-3.8-3.2-9.4,0-13.2c3.5-3.5,9.2-3.6,12.7-0.1l0,0l0.1,0.1
					C656.7,210.4,657.6,212.7,657.5,215.1 M649.2,201.7c-3.6,0-7,1.6-9.2,4.5v-4h-4.5v36.5h4.6v-14.4c2.2,2.9,5.6,4.5,9.2,4.4
					c3.5,0.1,6.9-1.4,9.2-4c4.9-5.5,4.9-13.7,0-19.2c-2.3-2.6-5.7-4.1-9.2-4 M618,223c-1.4,0.9-3,1.5-4.6,1.5
					c-2.8,0-4.2-1.6-4.2-5.2v-13.2h9.2v-4h-9.2V193h-4.5v9.2h-4.6v4h4.6V219c0,6.2,2.8,9.7,8.3,9.7c2.5,0.1,4.9-0.7,6.9-2.2L618,223
					z M591.8,215.1c0.1,2.5-0.8,4.8-2.4,6.7c-1.6,1.8-4,2.8-6.4,2.6c-2.4,0.1-4.7-0.9-6.4-2.6c-3.2-3.8-3.2-9.4,0-13.2
					c1.7-1.8,4-2.7,6.4-2.7c2.4-0.1,4.8,0.9,6.4,2.7C590.9,210.4,591.8,212.7,591.8,215.1 M591.5,205.9c-2.2-2.8-5.5-4.4-9.1-4.4
					c-3.5-0.1-6.8,1.3-9.2,3.8c-2.6,2.6-3.9,6.1-3.6,9.7c-0.1,3.6,1.2,7.1,3.6,9.8c2.3,2.6,5.7,4.1,9.2,4c3.5,0.1,6.9-1.5,9.1-4.3
					v3.7h4.4v-26.1h-4.4V205.9z M551.9,224.4c-2.4,0.1-4.7-0.9-6.4-2.6c-3.2-3.8-3.2-9.3,0-13.1c3.4-3.5,9-3.5,12.5-0.1l0,0l0.1,0.1
					c1.7,1.7,2.5,4.1,2.4,6.5c0.1,2.4-0.8,4.8-2.4,6.6C556.5,223.5,554.3,224.5,551.9,224.4 M552.4,201.7c-3.6,0-7,1.6-9.1,4.5
					v-14.6h-4.6v36.5h4.6v-3.7c2.1,2.9,5.5,4.5,9.1,4.4c3.5,0.1,6.9-1.3,9.2-4c2.4-2.7,3.7-6.1,3.7-9.7c0.1-3.6-1.2-7-3.7-9.6
					C559.3,202.9,555.9,201.4,552.4,201.7 M512.4,213c0.5-4.2,4.1-7.3,8.3-7.4c4-0.2,7.5,2.9,7.7,6.9c0,0,0,0.1,0,0.1l0,0v0.2h-16
					V213z M533.1,214.6c0.2-3.5-1.1-7-3.5-9.6c-2.4-2.4-5.6-3.6-9-3.5c-3.6-0.1-7,1.3-9.5,3.8c-2.4,2.7-3.7,6.1-3.6,9.7
					c0,6.7,4.1,13.6,13.9,13.6c4,0,7.9-1.2,11.2-3.5l-2-3.5c-2.6,1.9-5.8,2.9-9,2.9c-5.4,0-8.4-3-9.1-7.4H533
					C533.1,216.3,533.2,215.4,533.1,214.6 M521.5,190l-2.9,8h4l4.5-8H521.5z M497.8,215.1c0.1,2.5-0.8,4.8-2.4,6.7
					c-1.6,1.8-4,2.8-6.4,2.6c-2.4,0.1-4.7-0.9-6.4-2.6c-3.2-3.8-3.2-9.4,0-13.2c1.6-1.9,4-2.9,6.5-2.7c2.4-0.1,4.8,0.9,6.4,2.7
					C497.1,210.4,497.9,212.7,497.8,215.1 M497.4,205.9c-2.1-2.9-5.5-4.5-9-4.4c-3.5-0.1-6.9,1.3-9.2,4c-2.4,2.6-3.7,6-3.6,9.6
					c-0.1,3.6,1.2,7,3.6,9.7c2.4,2.6,5.8,4.1,9.4,4c3.5,0.1,6.9-1.5,9-4.3v3.6h4.6v-36.6h-4.6L497.4,205.9z M447,228.7
					c6.9,0,11.1-4.2,11.1-11.1v-15.4h-4.6v15.3c0,4.3-2.4,6.9-6.5,6.9s-6.5-2.6-6.5-6.9v-15.3h-4.6v15.5
					C435.9,224.4,440.3,228.7,447,228.7 M424.9,215.1c0.1,2.5-0.8,4.8-2.4,6.7c-1.6,1.8-4,2.8-6.4,2.6c-2.4,0.1-4.7-0.9-6.4-2.6
					c-3.2-3.8-3.2-9.4,0-13.2c1.6-1.9,4-2.9,6.4-2.7c2.4-0.1,4.8,0.9,6.4,2.7C424,210.4,424.9,212.7,424.9,215.1 M424.6,205.9
					c-2.1-2.9-5.5-4.5-9.1-4.4c-3.5-0.1-6.9,1.3-9.2,4c-2.4,2.6-3.7,6-3.6,9.6c-0.1,3.6,1.2,7,3.6,9.7c2.4,2.6,5.8,4.1,9.4,4
					c3.5,0.1,6.9-1.5,9-4.3v3.6h4.6v-36.6h-4.6L424.6,205.9z M378.1,228.1v-13.8c0-5.6,3-8.4,7.1-8.4c0.9,0,1.8,0.1,2.6,0.4l0.4-4.5
					c-1-0.2-2.1-0.3-3.1-0.4c-3.2-0.2-6.1,1.6-7.5,4.5v-3.7h-4.4V228h4.9V228.1z M355.6,228.7c6.9,0,11.1-4.2,11.1-11.1v-15.4h-4.6
					v15.3c0,4.3-2.4,6.9-6.5,6.9s-6.5-2.6-6.5-6.9v-15.3h-4.6v15.5C344.5,224.4,348.8,228.7,355.6,228.7 M313.5,215.1
					c0,2.4-0.9,4.8-2.5,6.6c-3.2,3.5-8.7,3.6-12.1,0.4c0,0,0,0-0.1-0.1l0,0l-0.3-0.3c-1.7-1.8-2.6-4.2-2.5-6.6
					c0-2.4,0.9-4.7,2.5-6.5c3.2-3.5,8.7-3.6,12.1-0.4c0,0,0.1,0.1,0.1,0.1l0,0l0.3,0.3C312.7,210.4,313.6,212.7,313.5,215.1
					 M318.3,213c0.5-4.2,4.1-7.3,8.3-7.4c4-0.2,7.5,2.9,7.7,7c0,0.1,0,0.2,0,0.2v0.2L318.3,213z M339.2,214.6c0.2-3.5-1.1-7-3.5-9.6
					c-2.4-2.4-5.6-3.6-9-3.5c-4.3-0.1-8.4,2-10.9,5.5c-4.4-6.1-13-7.4-19.1-2.9c0,0,0,0,0,0c-3.3,2.4-5.3,6.1-5.5,10.2v0.5
					c-0.1,3.6,1.3,7.1,3.8,9.7c5.6,5.4,14.4,5.2,19.8-0.4c0,0,0,0,0,0c0.3-0.4,0.8-0.8,1.1-1.2c2.4,3.6,6.3,5.5,11.5,5.5
					c4,0,7.9-1.3,11.1-3.6l-2-3.5c-2.6,1.9-5.8,2.9-9,2.9c-5.4,0-8.4-3-9.1-7.4H339C339,216.1,339,215.3,339.2,214.6 M276.1,228.7
					c2.5,0.1,4.9-0.6,7-1.8c2-1.1,3.7-2.8,4.8-4.8l-3.9-2.2c-1.6,2.9-4.7,4.6-8,4.6c-2.4,0.1-4.7-0.9-6.4-2.6
					c-3.5-3.8-3.4-9.6,0.1-13.4c1.7-1.8,4.1-2.7,6.6-2.6c3.3,0,6.3,1.8,7.9,4.7l3.8-2.2c-2.3-4.3-6.9-6.9-11.8-6.7
					c-7.5-0.3-13.8,5.6-14.1,13.1c-0.1,3.7,1.2,7.2,3.8,9.9C268.7,227.3,272.3,228.7,276.1,228.7 M234.2,228.6
					c6.9,0,11.1-4.2,11.1-11.1v-15.4h-4.5v15.3c0,4.3-2.4,6.9-6.5,6.9s-6.5-2.6-6.5-6.9v-15.2h-4.6v15.5
					C223.1,224.4,227.5,228.7,234.2,228.6 M209.5,214.3h-10.2l5.2-13.5L209.5,214.3z M220.1,228.1l-14.3-35.6h-2.6l-14.4,35.6h5.3
					l3.6-9.2h13.5l3.6,9.2H220.1z"/>
			</g>
		</g>
	</g>
</g>
</svg>
